<?xml version="1.0" encoding="utf-8"?>
<svg version="1.0" width="64px" height="64px" viewBox="0 0 64 64" preserveAspectRatio="xMidYMid meet" xmlns="http://www.w3.org/2000/svg">
  <g fill="#bbe5f9" transform="matrix(0.015426, 0, 0, 0.015426, 8.162962, 7.853647)" style="">
    <path d="M1469.2 1321.6 c-26.2 -6.5 -87.8 -20.9 -137.1 -32.3 -49 -11.7 -111.5 -26.2 -138.6 -32.6 -27.1 -6.5 -62.5 -14.8 -78.5 -18.5 -16 -3.7 -58.8 -13.6 -94.6 -22.2 l-65.6 -15.4 0 -10.2 c0 -9.9 0.6 -10.5 16.3 -13.9 8.6 -2.2 46.5 -11.7 83.8 -21.9 37.3 -9.9 101.6 -26.8 143.2 -37.9 106.9 -28 212.5 -56.1 266.4 -70.2 66.8 -17.9 82.9 -20 140.1 -19.4 l50.8 0.3 61.6 16.3 c84.4 22.5 182 48 275.7 72.4 43.1 11.4 103.2 27.1 133.1 35.1 l54.8 14.5 0 9.9 c0 9.5 -0.3 9.9 -22.2 14.8 -30.2 6.5 -167.2 38.5 -248.9 57.6 -36.3 8.6 -74.5 17.2 -84.7 19.4 -10.2 2.2 -54.5 12.3 -98.6 22.5 -163.5 38.8 -186.3 43.7 -197.7 43.4 -6.5 0 -33.3 -5.5 -59.4 -11.7z" style="fill: rgb(201, 234, 249);"/>
    <path d="M332.6 1056.1 c-68.7 -16.3 -215.6 -50.8 -249.5 -58.5 -33 -7.4 -37 -8.9 -37 -15.1 0 -3.4 0.6 -6.2 1.2 -6.2 0.6 0 75.8 -18.8 167.2 -41.9 91.2 -22.8 253.2 -63.8 360.1 -90.6 l194.3 -49 61.3 16.3 c33.6 9.2 77.3 20.6 96.7 25.6 l35.4 9.2 0.9 11.1 0.9 11.4 -16.3 0 c-35.7 0 -143.5 18.8 -188.2 32.6 -123.2 38.5 -213.1 84.4 -300.9 154.6 -21.9 16.9 -25.9 19.1 -37.6 18.8 -7.4 0 -47.1 -8.3 -88.7 -18.5z" style="fill: rgb(201, 234, 249);"/>
    <path d="M 2770.5 1020.1 C 2750.5 1003.8 2327.6 855.098 2318.7 852.598 C 2299.6 847.698 1893.594 888.193 1876.294 884.493 C 1860.594 880.793 2088.4 763 2088.4 752.8 C 2088.4 743.6 2089.3 742.3 2096.4 742.3 C 2103.2 742.3 2103.8 743.2 2101 746.6 C 2096.4 751.8 2097.9 752.8 2119.2 757.7 C 2136.8 761.4 2174.9 770.6 2348.7 812.8 C 2544.3 860.2 2641.6 883.6 2693.7 896.3 C 2854.5 935.1 2929.9 953.3 2974 964.4 C 3001.1 971.5 3025.7 977 3028.8 977.3 C 3033.1 977.6 3037.1 988.7 3032.8 988.7 C 3028.8 988.7 2925.6 1011.8 2875.4 1024.1 C 2799 1042.6 2797.8 1042.3 2770.7 1020.1 L 2770.5 1020.1 Z" style="fill: rgb(201, 234, 249);"/>
    <path d="M 1463 848.5 C 1435 841.4 1378.3 826.6 1336.7 816.2 C 1223.7 787.6 1231.7 790.6 1222.1 774.9 C 1203.3 743.5 1189.8 674.5 1202.7 674.5 C 1205.2 674.5 1207.3 676.7 1207.3 679.1 C 1207.3 681.6 1208.2 683.7 1209.8 683.7 C 1211 683.7 1247.7 674.5 1291.1 663.1 C 1355.8 646.5 1369.9 641.8 1367.2 638.5 C 1364.4 635.4 1500 622.395 1500 622.395 L 1819.179 689.041 C 1819.179 689.041 1536.6 862.4 1525.5 862.1 C 1519 861.8 1491 855.9 1463 848.5 Z" style="fill: rgb(201, 234, 249);"/>
    <path d="M1647.8 852.2 c0 -13.2 32 -92.1 55.4 -136.8 25.6 -48.7 31.1 -56.4 39.7 -56.4 4.6 0 6.5 1.5 5.5 4 -2.5 6.2 164.8 46.2 168.2 40.3 4.6 -8 8.3 -4.3 8.3 7.4 0 6.8 -2.8 20 -6.2 29.6 -8.3 24.6 -31.1 66.2 -36.7 67.8 -2.8 0.9 -28.3 7.7 -57.3 15.4 -104.4 27.4 -152.8 38.8 -164.8 38.8 -12 0 -12.3 -0.3 -12.3 -10.2z" style="fill: rgb(201, 234, 249);"/>
  </g>
  <g fill="#7ab2e4" transform="matrix(0.015426, 0, 0, 0.015426, 8.162962, 7.853647)" style="">
    <path d="M1529.2 2765.5 c-10.8 -3.4 -110.9 -30.8 -217.1 -59.8 -85.3 -23.4 -189.1 -51.7 -286.4 -78.5 -36.3 -9.9 -83.2 -22.5 -103.8 -28 -24.6 -6.5 -37.9 -11.4 -37.9 -14.2 0 -2.5 3.7 -4 10.5 -4 l10.2 0 2.2 -39.1 c0.9 -21.9 9.5 -311.1 18.8 -643.1 22.8 -807.3 19.1 -715.8 28 -717.9 4 -0.9 12.6 -0.9 19.1 0.3 l11.4 2.5 -10.8 3.7 c-12 4 -31.7 -1.2 189.4 51.1 37.3 8.6 76.7 17.9 87.8 20.3 11.1 2.2 55.4 12.6 98.6 22.8 193.1 45.6 181.4 43.1 193.4 39.7 16 -4.3 19.1 -4 19.1 2.8 0 4 -2.5 6.5 -6.8 7.1 l-7.1 0.9 -0.9 712.4 c-0.3 474 0.3 712.1 2.5 712.1 1.5 0 3.1 2.2 3.1 4.6 0 2.5 -1.2 4.6 -2.8 4.6 -1.5 0 -4.6 0.6 -7.1 1.2 -2.2 0.6 -8 0 -13.2 -1.5z" style="fill: rgb(130, 163, 192);"/>
    <path d="M599.1 2511.1 c-70.8 -19.7 -139.8 -38.8 -275.7 -75.8 -39.7 -11.1 -98.6 -27.1 -130.9 -36 -32 -8.9 -69 -18.8 -81.6 -22.2 -12.6 -3.1 -32.3 -8.6 -43.7 -12 l-20.9 -6.2 0 -689.6 c0 -618.5 0.6 -689.9 4.6 -689.9 2.8 0 16.3 2.8 30.2 6.2 13.9 3.1 60.7 14.2 103.8 24.3 43.1 9.9 114.9 26.8 159.5 37.3 l80.7 19.1 16.3 -13.6 c28.3 -23.7 26.8 -23.1 26.8 -12 0 8.6 -0.9 9.5 -9.2 9.5 -7.7 0 -9.2 1.2 -9.2 7.7 0 6.2 -1.5 7.7 -7.7 7.7 -4.6 0 -7.7 1.8 -7.7 4.3 0 2.5 -9.2 13.2 -20.6 24 -11.4 10.8 -24.6 23.7 -29.3 28.6 l-8.9 9.2 19.4 2.5 c33.6 4.3 175.9 23.7 186.6 25.6 12.3 2.5 12.6 4.3 2.2 70.5 -10.8 69 -13.9 89.9 -13.9 94.6 0 2.2 7.4 -3.1 16.3 -11.7 28.3 -27.4 43.4 -38.2 54.2 -38.2 l9.5 0 0 619.1 c0 548.2 0.6 619.1 4.6 619.1 2.5 0 4.6 1.5 4.6 3.1 0 1.8 4.9 3.1 10.8 3.1 8.6 0 10.8 1.2 10.8 6.2 0 4 -1.8 6.2 -5.2 5.9 -3.1 -0.3 -37.3 -9.2 -76.4 -20.3z" style="fill: rgb(130, 163, 192);"/>
  </g>
  <g fill="#5e9cd2" transform="matrix(0.015426, 0, 0, 0.015426, 8.162962, 7.853647)" style="">
    <path d="M1537.5 2045.7 l0.9 -722.6 49.3 -11.7 c163.5 -37.9 351.4 -81.3 471.2 -109 49.3 -11.4 94.9 -21.9 101.6 -23.4 l12.3 -3.1 -9.2 -4.3 c-8.9 -3.7 -8.3 -4 10.8 -3.4 l20 0.6 0.9 15.4 c0.3 8.6 7.7 322.2 16 697 8 375.1 15.4 682.5 16.3 683.1 0.6 0.6 10.2 -0.6 20.9 -3.4 10.8 -2.5 23.4 -4.6 28.3 -4.6 12 0 10.8 8.3 -1.5 10.8 -5.5 1.2 -41.9 10.8 -81 21.6 -38.8 10.8 -104.7 28.6 -146.3 40 -41.6 11.4 -104.4 28.6 -140.1 38.2 -35.4 9.9 -96.4 26.5 -135.5 37.3 -38.8 10.5 -100.7 27.4 -137.1 37.6 -36.3 10.5 -73.6 20.3 -82.5 22.5 l-16 3.7 0.6 -722.3z" style="fill: rgb(110, 154, 192);"/>
    <path d="M2491.7 1841.8 l0 -668.4 10.2 0 c7.4 0 17.2 5.5 39.1 21.6 41 30.2 69.6 52.4 82.5 63.8 6.2 5.2 11.7 9.2 12 8.9 0.6 -0.6 -5.9 -33.3 -14.5 -73 -8.3 -39.7 -15.4 -76.4 -15.4 -81.9 0 -9.2 0.6 -9.9 16.3 -12.9 94.6 -17.9 183.6 -35.1 189.4 -36.3 6.8 -1.5 6.5 -2.2 -5.5 -12.3 -6.8 -5.9 -12.3 -12.6 -12.3 -15.1 0 -2.5 -2.8 -4.3 -6.2 -4.3 -4.9 0 -6.2 -2.2 -6.2 -9.5 l0 -9.5 10.5 8 c5.9 4.3 12.3 8 14.5 8 2.2 0 38.8 -8.3 81 -18.2 106.9 -25.6 132.4 -31.1 140.1 -31.1 l6.5 0 0 689.6 0 689.9 -17.6 4.9 c-9.9 3.1 -28.3 8 -41 11.1 -12.6 3.4 -49.9 13.6 -83.2 22.5 -33 9.2 -93.9 25.9 -135.5 37.3 -41.6 11.4 -101.6 28 -134 37 -32 8.9 -70.8 19.4 -86.2 23.1 -15.1 4 -31.4 8.9 -36 11.4 l-8.6 4.3 0 -668.7z" style="fill: rgb(110, 154, 192);"/>
  </g>
  <g fill="#913695" transform="matrix(0.015426, 0, 0, 0.015426, 8.162962, 7.853647)" style="">
    <path d="M934.8 1199 c-21.3 -4.9 -109.6 -26.2 -119.2 -29 -10.5 -2.8 -11.7 -4 -11.7 -12.9 0 -9.9 1.5 -11.1 44 -34.8 120.7 -68.4 235.3 -109.3 355.4 -127.5 76.7 -11.7 178.3 -11.4 246.1 0.3 16.9 3.1 19.7 4.3 23.1 12.3 4.6 11.4 22.2 20.9 43.1 23.4 9.9 1.2 15.1 3.4 15.1 5.9 0 2.5 -0.6 4.3 -1.5 4.3 -0.6 0 -24.6 6.2 -53 13.9 -28.3 7.4 -83.5 21.9 -122.6 32.3 -38.8 10.2 -104.7 27.4 -146.3 38.5 -134 35.4 -235.3 62.2 -243.9 64.4 -4.9 0.9 -8.6 4 -8.6 6.5 0 4.6 -7.1 5.5 -20 2.5z" style="fill: rgb(198, 125, 202);"/>
    <path d="M2186.2 1183.6 c-1.2 -4.3 -15.7 -9.2 -64.4 -22.2 -34.5 -8.9 -96.1 -25.3 -136.8 -35.7 -40.7 -10.8 -109.3 -29 -152.5 -40 -43.1 -11.4 -104.1 -27.4 -135.2 -35.7 -31.1 -8 -57.9 -14.2 -59.1 -13.2 -1.5 0.9 -2.8 -0.9 -2.8 -4.3 0 -4 3.7 -6.8 12.9 -9.5 16.3 -4.9 26.5 -11.7 28.6 -18.8 5.2 -16.9 135.2 -40 224.8 -40 39.7 0 100.7 5.5 143.2 12.6 19.4 3.4 43.7 7.7 53.9 9.2 10.2 1.8 19.1 4.3 20 6.2 0.9 1.5 8.6 3.7 17.2 4.6 8.3 1.2 16.6 3.1 18.2 4.3 1.8 1.2 7.4 3.1 12.3 4.3 43.7 9.9 134.9 47.4 204.2 83.8 l43.7 23.1 0 11.7 0 11.4 -43.7 10.5 c-24.3 5.5 -74.2 17.6 -110.9 26.8 -37 8.9 -68.4 16.3 -69.9 16.3 -1.5 0 -3.4 -2.5 -4 -5.2z" style="fill: rgb(198, 125, 202);"/>
    <path d="M1648.7 939.4 c-22.8 -24.6 -23.4 -28.3 -11.1 -68.4 7.4 -23.1 9.5 -27.1 15.1 -27.1 5.2 0 6.5 1.5 5.2 5.9 -1.2 5.2 5.9 4 69 -12.3 38.5 -9.9 87.5 -22.5 108.7 -27.7 21.3 -5.2 40.3 -12 42.5 -14.5 3.1 -4 3.7 -3.1 3.7 7.1 0 14.8 -12.9 32 -53 71.1 -39.4 38.2 -56.4 50.2 -100.1 70.2 -51.1 23.4 -55.1 23.1 -80.1 -4.3z" style="fill: rgb(198, 125, 202);"/>
    <path d="M1436.8 947.4 c-77.9 -32 -139.5 -75.5 -184.8 -130 -16.3 -19.4 -20 -25.9 -20 -34.5 0 -9.9 0.3 -10.5 5.5 -6.2 2.8 2.5 20.6 8.3 39.1 12.9 18.8 4.6 63.1 16 98.6 24.9 74.5 19.4 151.5 38.5 154.3 38.5 1.2 0 0.3 -2.2 -1.8 -4.6 -4.9 -5.9 -3.1 -8 4.9 -5.9 15.4 4 30.5 48.4 17.6 52.4 -24.3 7.1 -51.1 29.9 -61.6 52.1 -4.6 9.5 -6.5 10.8 -16 10.8 -6.2 -0.3 -22.2 -4.9 -35.7 -10.5z" style="fill: rgb(198, 125, 202);"/>
    <path d="M908.6 867 c0 -4.9 10.5 -7.4 37 -8.6 l16.9 -0.6 -38.5 -10.2 c-135.2 -35.7 -168.2 -44.7 -170 -46.2 -1.2 -1.2 46.5 -13.9 105.6 -28.3 77.3 -18.8 107.2 -27.1 106 -29.9 -0.9 -2.5 1.2 -4 5.5 -4 4.9 0 10.5 5.2 19.7 18.8 15.4 22.8 47.7 56.7 72.4 75.8 14.8 11.7 17.9 15.7 17.9 23.7 l0 9.5 -65.3 -0.6 c-36 -0.3 -70.2 -1.2 -75.5 -2.5 -8.3 -1.8 -10.2 -1.2 -10.2 2.8 0 3.7 -2.8 4.9 -10.8 4.9 -7.4 0 -10.8 -1.5 -10.8 -4.6z" style="fill: rgb(198, 125, 202);"/>
  </g>
  <g fill="#99397b" transform="matrix(0.015426, 0, 0, 0.015426, 8.162962, 7.853647)" style="">
    <path d="M1493.8 1038.3 c-16.6 -5.5 -27.1 -12.6 -30.8 -21.9 -2.2 -4.9 -5.9 -9.2 -8 -9.2 -5.9 0 -5.5 -25.3 0.6 -45.9 4.3 -14.5 5.5 -16 11.7 -14.5 5.5 1.2 8 -0.3 12 -8.9 10.8 -22.5 37.3 -44.7 61.9 -52.4 3.4 -0.9 4.9 -3.4 3.7 -6.2 -4 -10.5 47.4 -4 78.8 9.9 15.1 6.8 17.6 8.9 16.3 14.5 -2.2 9.2 36 49.3 44.4 46.5 4.6 -1.5 6.8 0.9 10.8 12.6 7.1 20.9 6.5 40.3 -0.9 42.8 -3.4 0.9 -7.1 4.3 -8 7.7 -5.2 16.3 -38.8 25.3 -92.4 24.3 -21.9 -0.3 -51.7 0.3 -66.2 1.5 -14.5 0.9 -29.6 0.6 -33.9 -0.9z" style="fill: rgb(154, 93, 135);"/>
  </g>
  <g fill="#5d2459" transform="matrix(0.015426, 0, 0, 0.015426, 8.162962, 7.853647)" style="">
    <path d="M863.9 2582.9 c-72.1 -20.6 -192.5 -53.6 -208.5 -57.6 l-14.8 -3.4 0 -619.1 c0 -588.3 -0.3 -618.5 -5.2 -615.7 -3.1 1.5 -22.8 18.5 -43.7 37.6 -37 33.6 -38.2 34.5 -36.3 24.3 1.2 -5.9 5.5 -34.8 9.9 -64.1 4.3 -29.6 9.9 -66.8 12.6 -82.9 2.5 -16 4 -29.9 3.1 -30.8 -1.2 -1.2 -70.2 -11.4 -200.5 -29.6 l-27.7 -3.7 27.7 -29 c15.4 -15.7 37.6 -36.7 49.3 -45.9 12 -9.5 22.2 -18.2 23.1 -19.1 1.5 -2.2 13.2 -10.5 53.9 -38.8 87.5 -60.7 218.1 -113 329.6 -132.1 73.6 -12.6 99.5 -14.8 168.5 -15.1 37 -0.3 67.1 -0.3 67.1 -0.6 0 -0.3 -8 -6.8 -17.9 -14.5 -23.4 -18.2 -55.7 -51.7 -70.5 -73 -41.6 -59.1 -61.3 -130.6 -53.6 -193.4 13.6 -111.2 79.8 -200.8 191.3 -258.7 102.9 -53.6 187.3 -38.8 266.7 46.5 20.9 22.8 23.1 25.3 47.7 62.5 51.7 77.6 102.9 207 141.1 356 8.3 32.6 15.4 55.4 15.4 50.2 1.8 -60.1 15.1 -181.1 24.9 -229.5 44.7 -215.6 142.3 -316 283.1 -291.4 32.6 5.9 83.8 21.9 107.5 33.9 65.3 33 119.8 89 140.4 144.1 21.6 57.3 22.5 104.1 2.8 164.2 -19.1 57.9 -64.4 118.9 -125 167.2 -13.2 10.5 -23.1 19.1 -21.6 19.1 1.2 0 15.7 -2.2 31.7 -4.9 60.1 -9.9 98.6 -13.6 155.5 -15.4 197.1 -6.8 383.2 46.8 540.5 155.2 33.9 23.4 72.1 54.8 93.6 77 14.8 15.1 14.8 15.7 7.7 17.2 -17.9 4.3 -183.6 35.7 -196.8 37.6 -8 0.9 -16.3 2.8 -18.2 4 -2.5 1.5 0 18.2 8.6 59.1 12 56.4 24.9 122 24.9 126.9 0 1.5 -10.2 -6.2 -22.2 -16.9 -21.9 -19.4 -85 -68.1 -114 -88.1 l-14.8 -10.2 0 661.9 0 662.2 -34.5 9.2 c-33.3 9.2 -83.8 22.5 -196.5 51.4 -28 7.4 -51.1 12.9 -51.7 12.3 -2.2 -1.8 -31.4 -1398 -29.3 -1399.9 2.2 -2.2 47.1 -13.2 174.3 -43.4 23.1 -5.5 42.2 -11.4 42.2 -12.6 0 -3.7 -85.6 -47.4 -134 -68.1 -78.8 -33.9 -152.8 -56.4 -226.1 -68.4 -74.5 -12 -135.2 -15.7 -193.1 -11.1 -51.7 4 -115.2 14.8 -144.1 24.9 l-17.2 5.9 0 -10.5 c0 -5.9 -2.8 -17.9 -6.2 -26.8 -3.4 -8.6 -5.9 -16.3 -5.2 -16.6 0.3 -0.3 17.9 -8.3 39.1 -18.2 45.6 -20.6 70.8 -38.8 111.8 -81.3 34.2 -35.1 62.5 -77 76.7 -112.7 8.9 -22.5 9.9 -27.7 9.9 -60.1 0.3 -29 -0.6 -37.3 -5.5 -46.2 -12.6 -23.7 -31.7 -36.3 -59.1 -39.1 -36.3 -3.7 -70.5 20.3 -108.7 75.8 -31.4 45.9 -75.8 142.6 -97.3 211.6 l-8.6 27.7 -15.7 -8.3 c-16.6 -8.9 -49 -18.2 -65 -18.2 -9.5 0 -10.5 -0.6 -23.7 -24.6 -23.1 -41.3 -77 -122 -101.9 -152.5 -26.8 -32.6 -67.8 -72.4 -88.7 -86.5 -12.9 -8.6 -28 -15.4 -40.7 -18.5 -18.2 -4.6 -21.3 -4.6 -36.7 0 -38.5 11.1 -58.2 38.2 -58.2 79.8 0 68.1 55.4 147.8 143.5 206.1 36.3 24.3 65.9 39.1 114.6 57.9 l6.5 2.8 -5.9 18.8 c-3.1 10.5 -5.9 23.7 -5.9 29.6 0 5.9 -0.6 10.5 -1.5 10.5 -0.9 0 -15.1 -2.5 -31.7 -5.2 -46.5 -8 -154.9 -7.4 -212.5 1.5 -94.2 14.8 -192.5 45.3 -280.3 87.5 -50.5 24.3 -121.4 65 -117 67.5 3.1 1.5 99.2 25.3 130.9 32 6.5 1.5 6.5 1.8 5.2 59.1 -0.9 32 -9.9 342.8 -20 691.2 -9.9 348.3 -18.2 638.5 -18.2 644.6 0 6.2 -0.9 11.1 -2.2 10.8 -1.5 0 -23.1 -6.2 -48.7 -13.2z" style="fill: rgb(176, 105, 171);"/>
  </g>
  <path fill-rule="evenodd" d="M 53.132 11.175 L 51.772 9.896 C 40.046 -0.467 22.127 -0.041 10.912 11.175 C -0.303 22.391 -0.73 40.31 9.633 52.035 C 10.046 52.501 10.472 52.955 10.912 53.396 C 11.356 53.839 11.81 54.266 12.273 54.675 C 23.998 65.037 41.917 64.611 53.133 53.396 C 64.349 42.181 64.775 24.262 54.412 12.536 C 54.003 12.073 53.576 11.619 53.133 11.175 Z M 49.125 12.542 C 38.864 3.634 23.309 4.059 13.553 13.816 C 3.796 23.572 3.371 39.127 12.279 49.388 L 49.125 12.542 Z M 14.919 52.028 L 51.765 15.182 C 60.673 25.443 60.249 40.998 50.491 50.754 C 40.734 60.511 25.18 60.936 14.919 52.028 Z" style="fill: rgb(97, 109, 202);"/>
</svg>